# This file uses centimeters as units for non-parametric coordinates.

mtllib petal.mtl
g default
v -0.997470 -0.030122 -0.002697
v 0.458976 0.287947 0.692038
v 0.380800 0.206094 -0.739936
v -0.380207 0.252675 0.750794
v 1.129635 0.106298 0.001516
v -0.459569 0.169581 -0.702897
v -0.000000 -0.051881 -0.000000
v -0.891046 -0.000130 -0.449175
v -0.836622 0.056853 0.547715
v -0.225801 0.055498 0.445889
v -0.272934 0.006150 -0.417443
v -0.498735 -0.048262 -0.000915
v 0.000895 0.277048 0.839289
v 0.880405 0.119554 0.254256
v 0.498735 -0.005629 0.000024
v 0.272934 0.076815 0.417443
v 0.847263 0.084854 -0.352796
v -0.005267 0.181100 -0.839289
v 0.225801 0.027466 -0.445889
vt 0.066987 0.250000
vt 0.933013 0.250000
vt 0.500000 1.000000
vt 0.500000 0.000000
vt 0.933013 0.750000
vt 0.066987 0.750000
vt 0.500000 0.500000
vt 0.000000 0.500000
vt 0.250000 0.066987
vt 0.500000 0.250000
vt 0.283494 0.625000
vt 0.283494 0.375000
vt 0.750000 0.066987
vt 1.000000 0.500000
vt 0.716506 0.625000
vt 0.716506 0.375000
vt 0.750000 0.933013
vt 0.250000 0.933013
vt 0.500000 0.750000
vn -0.007354 0.970011 0.242950
vn 0.002666 0.939331 0.343001
vn 0.001092 0.989018 0.147794
vn -0.001943 0.998755 -0.049839
vn 0.036495 0.997590 -0.059015
vn -0.025531 0.965329 -0.259784
vn -0.039024 0.908625 -0.415785
vn -0.038245 0.941936 -0.333608
vn -0.043688 0.997766 -0.050543
vn -0.069195 0.865568 -0.495989
vn -0.119158 0.914719 -0.386122
vn -0.191662 0.836516 -0.513330
vn -0.160960 0.939666 -0.301861
vn -0.148082 0.988159 -0.040165
vn -0.121263 0.991364 -0.049922
vn -0.145433 0.974722 0.169605
vn -0.089291 0.954972 0.282942
vn -0.157905 0.878678 0.450546
vn -0.023565 0.907141 0.420166
s 1
g pDisc1
usemtl initialShadingGroup
f 11/11/1 6/6/2 8/8/3 12/12/4
f 8/8/3 1/1/5 9/9/6 12/12/4
f 9/9/6 4/4/7 10/10/8 12/12/4
f 10/10/8 7/7/9 11/11/1 12/12/4
f 10/10/8 4/4/7 13/13/10 16/16/11
f 13/13/10 2/2/12 14/14/13 16/16/11
f 14/14/13 5/5/14 15/15/15 16/16/11
f 15/15/15 7/7/9 10/10/8 16/16/11
f 15/15/15 5/5/14 17/17/16 19/19/17
f 17/17/16 3/3/18 18/18/19 19/19/17
f 18/18/19 6/6/2 11/11/1 19/19/17
f 11/11/1 7/7/9 15/15/15 19/19/17
