# This file uses centimeters as units for non-parametric coordinates.

mtllib star.mtl
g default
v -0.207815 0.286030 -0.192095
v -0.336250 0.109255 -0.192095
v -0.336250 -0.109255 -0.192095
v -0.207815 -0.286030 -0.192095
v -0.000000 -0.353555 -0.192095
v 0.207815 -0.286030 -0.192095
v 0.336250 -0.109255 -0.192095
v 0.336250 0.109255 -0.192095
v 0.207815 0.286030 -0.192095
v 0.000000 0.353555 -0.192095
v -0.555930 0.807740 -0.000000
v -0.475530 0.154510 -0.000000
v -0.899510 -0.249700 -0.000000
v -0.293895 -0.404510 -0.000000
v -0.000000 -0.903235 0.000000
v 0.293895 -0.404510 0.000000
v 0.899510 -0.249700 0.000000
v 0.475530 0.154510 0.000000
v 0.555930 0.807740 0.000000
v 0.000000 0.500000 0.000000
v -0.207815 0.286030 0.192095
v -0.336250 0.109255 0.192095
v -0.336250 -0.109255 0.192095
v -0.207815 -0.286030 0.192095
v -0.000000 -0.353555 0.192095
v 0.207815 -0.286030 0.192095
v 0.336250 -0.109255 0.192095
v 0.336250 0.109255 0.192095
v 0.207815 0.286030 0.192095
v 0.000000 0.353555 0.192095
v 0.000000 0.000000 -0.337570
v -0.000000 0.000000 0.337570
vt 0.000000 0.250000
vt 0.100000 0.250000
vt 0.100000 0.500000
vt 0.000000 0.500000
vt 0.200000 0.250000
vt 0.200000 0.500000
vt 0.300000 0.250000
vt 0.300000 0.500000
vt 0.400000 0.250000
vt 0.400000 0.500000
vt 0.500000 0.250000
vt 0.500000 0.500000
vt 0.600000 0.250000
vt 0.600000 0.500000
vt 0.700000 0.250000
vt 0.700000 0.500000
vt 0.800000 0.250000
vt 0.800000 0.500000
vt 0.900000 0.250000
vt 0.900000 0.500000
vt 1.000000 0.250000
vt 1.000000 0.500000
vt 0.100000 0.750000
vt 0.000000 0.750000
vt 0.200000 0.750000
vt 0.300000 0.750000
vt 0.400000 0.750000
vt 0.500000 0.750000
vt 0.600000 0.750000
vt 0.700000 0.750000
vt 0.800000 0.750000
vt 0.900000 0.750000
vt 1.000000 0.750000
vt 0.050000 0.000000
vt 0.150000 0.000000
vt 0.250000 0.000000
vt 0.350000 0.000000
vt 0.450000 0.000000
vt 0.550000 0.000000
vt 0.650000 0.000000
vt 0.750000 0.000000
vt 0.850000 0.000000
vt 0.950000 0.000000
vt 0.050000 1.000000
vt 0.150000 1.000000
vt 0.250000 1.000000
vt 0.350000 1.000000
vt 0.450000 1.000000
vt 0.550000 1.000000
vt 0.650000 1.000000
vt 0.750000 1.000000
vt 0.850000 1.000000
vt 0.950000 1.000000
vn -0.593728 0.034361 -0.803932
vn -0.593728 0.034361 -0.803932
vn -0.593728 0.034361 -0.803932
vn -0.593728 0.034361 -0.803932
vn -0.486851 0.331478 -0.808145
vn -0.486851 0.331478 -0.808145
vn -0.486851 0.331478 -0.808145
vn -0.486851 0.331478 -0.808145
vn -0.249792 -0.552980 -0.794869
vn -0.249792 -0.552980 -0.794869
vn -0.249792 -0.552980 -0.794869
vn -0.249792 -0.552980 -0.794869
vn -0.451747 -0.400257 -0.797320
vn -0.451747 -0.400257 -0.797320
vn -0.451747 -0.400257 -0.797320
vn -0.451747 -0.400257 -0.797320
vn 0.451747 -0.400257 -0.797320
vn 0.451747 -0.400257 -0.797320
vn 0.451747 -0.400257 -0.797320
vn 0.451747 -0.400257 -0.797320
vn 0.249792 -0.552980 -0.794869
vn 0.249792 -0.552980 -0.794869
vn 0.249792 -0.552980 -0.794869
vn 0.249792 -0.552980 -0.794869
vn 0.486851 0.331478 -0.808145
vn 0.486851 0.331478 -0.808145
vn 0.486851 0.331478 -0.808145
vn 0.486851 0.331478 -0.808145
vn 0.593728 0.034361 -0.803932
vn 0.593728 0.034361 -0.803932
vn 0.593728 0.034361 -0.803932
vn 0.593728 0.034361 -0.803932
vn -0.175458 0.557844 -0.811187
vn -0.175458 0.557844 -0.811187
vn -0.175458 0.557844 -0.811187
vn -0.175458 0.557844 -0.811187
vn 0.175458 0.557845 -0.811187
vn 0.175458 0.557845 -0.811187
vn 0.175458 0.557845 -0.811187
vn 0.175458 0.557845 -0.811187
vn -0.593728 0.034361 0.803932
vn -0.593728 0.034361 0.803932
vn -0.593728 0.034361 0.803932
vn -0.593728 0.034361 0.803932
vn -0.486851 0.331478 0.808145
vn -0.486851 0.331478 0.808145
vn -0.486851 0.331478 0.808145
vn -0.486851 0.331478 0.808145
vn -0.249792 -0.552980 0.794869
vn -0.249792 -0.552980 0.794869
vn -0.249792 -0.552980 0.794869
vn -0.249792 -0.552980 0.794869
vn -0.451747 -0.400257 0.797320
vn -0.451747 -0.400257 0.797320
vn -0.451747 -0.400257 0.797320
vn -0.451747 -0.400257 0.797320
vn 0.451747 -0.400257 0.797320
vn 0.451747 -0.400257 0.797320
vn 0.451747 -0.400257 0.797320
vn 0.451747 -0.400257 0.797320
vn 0.249792 -0.552980 0.794869
vn 0.249792 -0.552980 0.794869
vn 0.249792 -0.552980 0.794869
vn 0.249792 -0.552980 0.794869
vn 0.486851 0.331478 0.808145
vn 0.486851 0.331478 0.808145
vn 0.486851 0.331478 0.808145
vn 0.486851 0.331478 0.808145
vn 0.593728 0.034361 0.803932
vn 0.593728 0.034361 0.803932
vn 0.593728 0.034361 0.803932
vn 0.593728 0.034361 0.803932
vn -0.175458 0.557844 0.811187
vn -0.175458 0.557844 0.811187
vn -0.175458 0.557844 0.811187
vn -0.175458 0.557844 0.811187
vn 0.175458 0.557845 0.811187
vn 0.175458 0.557844 0.811187
vn 0.175458 0.557845 0.811187
vn 0.175458 0.557845 0.811187
vn -0.321238 0.233393 -0.917787
vn -0.321238 0.233393 -0.917787
vn -0.321238 0.233393 -0.917787
vn -0.397073 0.000000 -0.917787
vn -0.397073 0.000000 -0.917787
vn -0.397073 0.000000 -0.917787
vn -0.321238 -0.233393 -0.917787
vn -0.321238 -0.233393 -0.917787
vn -0.321238 -0.233393 -0.917787
vn -0.122702 -0.377638 -0.917787
vn -0.122702 -0.377639 -0.917787
vn -0.122702 -0.377639 -0.917787
vn 0.122702 -0.377639 -0.917787
vn 0.122702 -0.377639 -0.917787
vn 0.122702 -0.377639 -0.917787
vn 0.321239 -0.233393 -0.917787
vn 0.321239 -0.233393 -0.917787
vn 0.321239 -0.233393 -0.917787
vn 0.397073 -0.000000 -0.917787
vn 0.397073 -0.000000 -0.917787
vn 0.397073 -0.000000 -0.917787
vn 0.321239 0.233394 -0.917787
vn 0.321239 0.233393 -0.917787
vn 0.321239 0.233393 -0.917787
vn 0.122702 0.377639 -0.917787
vn 0.122702 0.377639 -0.917787
vn 0.122702 0.377639 -0.917787
vn -0.122702 0.377639 -0.917787
vn -0.122702 0.377639 -0.917787
vn -0.122702 0.377639 -0.917787
vn -0.321238 0.233393 0.917787
vn -0.321238 0.233393 0.917787
vn -0.321238 0.233393 0.917787
vn -0.397073 0.000000 0.917787
vn -0.397073 0.000000 0.917787
vn -0.397073 0.000000 0.917787
vn -0.321238 -0.233393 0.917787
vn -0.321238 -0.233393 0.917787
vn -0.321238 -0.233393 0.917787
vn -0.122702 -0.377639 0.917787
vn -0.122702 -0.377639 0.917787
vn -0.122702 -0.377639 0.917787
vn 0.122702 -0.377639 0.917787
vn 0.122702 -0.377639 0.917787
vn 0.122702 -0.377639 0.917787
vn 0.321238 -0.233393 0.917787
vn 0.321238 -0.233393 0.917787
vn 0.321238 -0.233393 0.917787
vn 0.397073 -0.000000 0.917787
vn 0.397073 -0.000000 0.917787
vn 0.397073 -0.000000 0.917787
vn 0.321239 0.233393 0.917787
vn 0.321239 0.233394 0.917787
vn 0.321239 0.233393 0.917787
vn 0.122702 0.377639 0.917787
vn 0.122702 0.377639 0.917787
vn 0.122702 0.377639 0.917787
vn -0.122702 0.377639 0.917787
vn -0.122702 0.377639 0.917787
vn -0.122702 0.377639 0.917787
s off
g star:pSphere1
usemtl initialShadingGroup
f 1/1/1 2/2/2 12/3/3 11/4/4
f 2/2/5 3/5/6 13/6/7 12/3/8
f 3/5/9 4/7/10 14/8/11 13/6/12
f 4/7/13 5/9/14 15/10/15 14/8/16
f 5/9/17 6/11/18 16/12/19 15/10/20
f 6/11/21 7/13/22 17/14/23 16/12/24
f 7/13/25 8/15/26 18/16/27 17/14/28
f 8/15/29 9/17/30 19/18/31 18/16/32
f 9/17/33 10/19/34 20/20/35 19/18/36
f 10/19/37 1/21/38 11/22/39 20/20/40
f 11/4/41 12/3/42 22/23/43 21/24/44
f 12/3/45 13/6/46 23/25/47 22/23/48
f 13/6/49 14/8/50 24/26/51 23/25/52
f 14/8/53 15/10/54 25/27/55 24/26/56
f 15/10/57 16/12/58 26/28/59 25/27/60
f 16/12/61 17/14/62 27/29/63 26/28/64
f 17/14/65 18/16/66 28/30/67 27/29/68
f 18/16/69 19/18/70 29/31/71 28/30/72
f 19/18/73 20/20/74 30/32/75 29/31/76
f 20/20/77 11/22/78 21/33/79 30/32/80
f 2/2/81 1/1/82 31/34/83
f 3/5/84 2/2/85 31/35/86
f 4/7/87 3/5/88 31/36/89
f 5/9/90 4/7/91 31/37/92
f 6/11/93 5/9/94 31/38/95
f 7/13/96 6/11/97 31/39/98
f 8/15/99 7/13/100 31/40/101
f 9/17/102 8/15/103 31/41/104
f 10/19/105 9/17/106 31/42/107
f 1/21/108 10/19/109 31/43/110
f 21/24/111 22/23/112 32/44/113
f 22/23/114 23/25/115 32/45/116
f 23/25/117 24/26/118 32/46/119
f 24/26/120 25/27/121 32/47/122
f 25/27/123 26/28/124 32/48/125
f 26/28/126 27/29/127 32/49/128
f 27/29/129 28/30/130 32/50/131
f 28/30/132 29/31/133 32/51/134
f 29/31/135 30/32/136 32/52/137
f 30/32/138 21/33/139 32/53/140
